<svg xmlns="http://www.w3.org/2000/svg" xmlns:xlink="http://www.w3.org/1999/xlink" viewBox="275 275 1100 1100" xmlns:v="https://vecta.io/nano"><defs><linearGradient x1="5074.66" y1="7206.57" x2="9015.34" y2="3156.83" spreadMethod="pad" id="A" xlink:href="#L"><stop offset="0" stop-color="#b84333"/><stop offset="1" stop-color="#9b2c17"/></linearGradient><linearGradient x1="0" y1="0" x2="1" y2="0" gradientTransform="matrix(0.543578,1345.37,-1345.37,-1.34537,8523.95,6055.57)" spreadMethod="pad" id="B" xlink:href="#L"><stop offset="0" stop-color="#fefdff"/><stop offset="1" stop-color="#c5c5c5"/></linearGradient><linearGradient x1="3244.78" y1="8513.08" x2="9588.21" y2="8513.08" spreadMethod="pad" id="C" xlink:href="#L"><stop offset="0" stop-color="#e2867f"/><stop offset="1" stop-color="#d54934"/></linearGradient><linearGradient x1="0" y1="0" x2="1" y2="0" gradientTransform="matrix(0.54353,557.117,-557.117,-0.557117,7871.33,8189.02)" spreadMethod="pad" id="D" xlink:href="#L"><stop offset="0" stop-color="#fefdff"/><stop offset="1" stop-color="#c5c5c5"/></linearGradient><linearGradient x1="2784.68" y1="8175.39" x2="3804.1" y2="2834.71" spreadMethod="pad" id="E" xlink:href="#L"><stop offset="0" stop-color="#d5513f"/><stop offset="1" stop-color="#bf402d"/></linearGradient><linearGradient x1="0" y1="0" x2="1" y2="0" gradientTransform="matrix(0.543584,557.172,-557.172,-0.557172,3794.43,8351.83)" spreadMethod="pad" id="F" xlink:href="#L"><stop offset="0" stop-color="#fefdff"/><stop offset="1" stop-color="#c5c5c5"/></linearGradient><linearGradient x1="0" y1="0" x2="1" y2="0" gradientTransform="matrix(0.543425,557.009,-557.009,-0.557009,5766.28,8270.63)" spreadMethod="pad" id="G" xlink:href="#L"><stop offset="0" stop-color="#fefdff"/><stop offset="1" stop-color="#c5c5c5"/></linearGradient><linearGradient x1="0" y1="0" x2="1" y2="0" gradientTransform="matrix(0.543578,1345.37,-1345.37,-1.34537,6132.53,2875.4)" spreadMethod="pad" id="H" xlink:href="#L"><stop offset="0" stop-color="#fefdff"/><stop offset="1" stop-color="#c5c5c5"/></linearGradient><linearGradient x1="0" y1="0" x2="1" y2="0" gradientTransform="matrix(0.543578,1345.37,-1345.37,-1.34537,6023.82,5674.74)" spreadMethod="pad" id="I" xlink:href="#L"><stop offset="0" stop-color="#fefdff"/><stop offset="1" stop-color="#c5c5c5"/></linearGradient><linearGradient x1="0" y1="0" x2="1" y2="0" gradientTransform="matrix(0.543583,1399.72,-1399.72,-1.39972,3210.09,4696.19)" spreadMethod="pad" id="J" xlink:href="#L"><stop offset="0" stop-color="#fefdff"/><stop offset="1" stop-color="#c5c5c5"/></linearGradient><linearGradient x1="0" y1="0" x2="1" y2="0" gradientTransform="matrix(0.543573,1277.42,-1277.42,-1.27742,8578.31,3344.24)" spreadMethod="pad" id="K" xlink:href="#L"><stop offset="0" stop-color="#fefdff"/><stop offset="1" stop-color="#c5c5c5"/></linearGradient><linearGradient id="L" gradientUnits="userSpaceOnUse"/></defs><g transform="matrix(.133333 0 0 -.133333 0 1600)"><g fill="#de665a"><path d="M7994.9 8930.86l-462.05 243.93v1.44c-23.18 9.89-44.74 23.16-66.3 36.21-25.28 15.29-50.49 30.72-76.64 44.49-1.59.84-3.01 1.83-4.29 2.94-128.07 52.31-323.09 77.32-587.96 77.32 236.46-19.03 416.52-53.01 544.26-108.72l1549.89-762.38-896.91 464.77"/><path d="M9406.86 3683.25c-72.03-360.8-299.65-633.95-679.49-814.69-1666.75-379.15-2688.68-570.76-3071.23-570.76-506.89 0-788.2 146.09-841.19 435.54l-108.73 3532.61c-18.34 453.89 207.25 825.56 679.49 1115.02l3506.1 570.76c307.8-19.02 480.39-262.96 515.05-735.19 55.71-2046.59 55.71-3225.49 0-3533.29zM4759.22 2080.37c-143.37 0-281.3 18.34-406.32 55.71l-164.44 79.5 190.93 26.5c127.75 19.03 191.62 172.59 191.62 464.77 106-411.77 355.37-610.86 745.39-599.98zm4837.51 4602.5v242.39h1.06v291.28c0 400.21-108.72 753.54-326.15 1061.34l-379.83 188.22c217.43-124.35 79.5-233.06-408.36-323.43L5412.2 7707.12c-435.54-74.06-833.71-55.72-1197.23 53-199.1 72.02-650.27 337.02-1358.96 788.87-180.06 89.7-243.93 164.44-188.22 217.44 18.35 18.34 90.37 55.71 217.44 108.71l3506.1 488.55h-29.22c-71.34 0-525.23-45.53-1358.96-135.22l-1602.88-218.11c-252.09-53-435.55-97.85-544.26-135.22-199.09-37.37-352.65-108.71-461.37-217.43l190.94 108.72v-26.5c18.34-127.74 217.43-300.33 597.26-517.77 217.43-125.02 416.52-233.74 599.97-326.14 15.64 0 26.51-8.16 26.51-26.5 487.86-199.09 824.88-289.46 1005.63-271.12l1194.51 108.72 1876.72 162.4L6200.4 7651.4l-270.43-53h-137.93l-188.91-26.5c-326.14-18.34-570.75-100.56-735.19-246.65-18.34 0-36.69-8.15-52.99-26.5l-29.22-26.49c-34.66-37.38-61.16-74.75-79.51-109.4-72.02-108.72-119.58-686.95-135.21-1738.1-19.03-525.92-29.22-1043-29.22-1549.89-16.3 686.95-8.15 1385.45 29.22 2091.43 15.63 833.04-82.22 1342.65-300.33 1523.39-798.39 469.52-1377.3 769.85-1738.1 896.91-146.09 53-262.96-36.69-356.05-273.15 37.37 37.37 119.59 93.09 247.33 164.43l732.48-352.65c487.86-236.46 788.19-409.04 896.91-517.76 180.74-146.09 315.95-462.05 409.04-953.3l-55.72-3450.4c-19.02-453.89-116.87-660.44-300.32-626.48-71.35 19.03-315.96 165.12-732.48 438.27-398.17 270.43-671.33 469.52-814.69 597.26-236.46 217.43-353.33 506.89-353.33 867.69l-108.72 3044.74-29.22-244.61V5803.9l55.73-1711.6c19.02-273.15 52.99-443.03 108.71-517.77 90.37-124.34 334.3-342.45 732.47-652.98 382.56-289.46 751.51-533.39 1115.03-732.47 307.8-180.07 642.11-252.08 1006.3-217.48 53.01 0 390.02 63.91 1005.63 190.98 1719.76 271.11 2699.57 480.39 2935.35 623.76 289.46 164.43 470.19 462.04 544.25 896.91l26.12 2999.62M2041.31 4880.49l55.72-679.47-55.72 2609.19V4880.49"/></g><path d="M4571.01 5966.3c-37.37-705.98-45.52-1404.48-29.22-2091.43 0 506.89 10.19 1023.97 29.22 1549.89 15.63 1048.43 63.19 1629.38 135.21 1738.1l-26.49-26.5-137.94-243.93-79.5 353.33c0 124.34-127.73 262.27-382.54 405.65l-270.43 218.11c0 18.34-10.87 26.5-26.51 26.5-183.45 89.69-382.54 201.12-599.97 326.14-379.83 217.44-578.92 390.03-597.26 517.77v-55.72c-108.72-53-199.09-162.39-271.11-326.83-55.72-53-108.72-150.84-164.44-296.93 19.03 18.34 26.5 36.69 26.5 53 93.09 236.46 209.96 326.15 356.05 273.15 360.8-127.06 939.71-427.39 1738.1-896.91 218.11-180.74 315.96-690.35 300.33-1523.39m0-3259.45c0-292.18-63.87-445.74-191.62-464.77l-190.93-26.5 164.44-79.5c125.02-37.37 262.95-55.71 406.33-55.71l557.17 26.5c-390.02-10.88-639.39 188.21-745.39 599.98m-2503.2 4320.79l-26.5-164.43v-53l55.72-2609.19v-82.22l26.51-26.5-55.73 1711.61v1223.73m2908.85 406.33l-108.72-108.72c164.44 146.09 409.05 228.31 735.19 246.65l188.91 26.5c-271.12 0-496.71-37.36-679.49-108.71l-135.89-55.72m1385.45 243.94l-161.71-26.51 1685.78 218.12-1876.72-162.4 352.65-29.21" fill="#e5938d"/><path d="M2123.54 8113.45c-55.73-125.03-90.38-243.93-108.72-353.33V6701.49l26.49-53.89v215.61l26.5 164.43v53l29.22 244.61-29.22 217.44c0 236.46 29.22 409.04 82.22 517.76 55.72 146.09 108.72 243.93 164.44 296.93 72.02 164.44 162.39 273.83 271.11 326.83v82.22l-190.94-108.72c-109.39-108.72-199.08-289.46-271.1-544.26m2691.41-515.05c-180.75-18.34-517.77 72.03-1005.63 271.12l270.43-218.11c254.81-143.38 382.54-281.31 382.54-405.65l79.5-353.33 137.94 243.93 26.49 26.5c18.35 37.37 44.85 72.02 79.51 109.4l29.22 26.49c16.3 18.35 34.65 26.5 52.99 26.5l108.72 108.72 135.89 55.72c182.79 71.35 408.37 108.71 679.49 108.71h137.93l270.43 53.01 161.71 26.5-352.65 29.21-1194.51-108.72" fill="#f5dbd9"/><g fill-rule="evenodd"><path d="M8592.16 4636.56c-143.37 0-271.11-63.87-379.83-191.61-108.72-145.41-164.43-307.81-164.43-487.87 0-183.46 55.71-345.17 164.43-491.26 108.72-125.02 236.46-188.22 379.83-188.22 146.09 0 262.28 61.15 352.65 188.22 108.72 146.09 164.43 307.8 164.43 491.26 0 180.06-55.71 342.46-164.43 487.87-90.37 127.74-206.56 191.61-352.65 191.61zM6445.01 5803.9c127.06 127.75 190.93 289.46 190.93 488.55 0 199.08-63.87 371.67-190.93 517.76-109.39 143.37-254.8 217.43-435.55 217.43-161.71 0-297.6-74.06-406.33-217.43-127.06-146.09-190.93-318.68-190.93-517.76 0-199.09 63.87-360.8 190.93-488.55 108.73-145.4 244.62-217.43 406.33-217.43 180.75 0 326.16 72.03 435.55 217.43zm-326.83-1576.39c-161.72 0-296.93-71.34-406.32-217.43-127.07-127.74-190.94-289.46-190.94-488.54 0-199.09 63.87-363.52 190.94-488.55 109.39-146.09 244.6-217.43 406.32-217.43 180.74 0 326.83 71.34 435.55 214.71 127.06 127.75 190.93 289.46 190.93 491.27 0 199.08-63.87 360.8-190.93 488.54-108.72 146.09-254.81 217.43-435.55 217.43zm3288.68 2989.03c55.71-2046.59 55.71-3225.49 0-3533.29-72.03-360.8-297.62-633.95-679.48-814.69-1666.76-379.15-2688.7-570.76-3071.24-570.76-506.89 0-788.2 146.09-841.2 435.54l-108.71 3532.61c-18.35 453.89 207.24 825.56 679.47 1115.02l3506.11 570.76c307.8-19.02 480.39-262.96 515.05-735.19zm-867.7 190.93c-165.11 0-300.33-72.03-409.04-217.43-127.75-125.03-190.94-289.46-190.94-488.55 0-199.08 63.19-371.67 190.94-517.76 108.71-125.02 243.93-188.21 409.04-188.21 161.72 0 296.93 63.19 405.65 188.21 108.72 146.09 164.43 318.68 164.43 517.76 0 199.09-55.71 363.52-164.43 488.55-108.72 145.4-243.93 217.43-405.65 217.43" fill="url(#A)"/><path d="M8539.16 7407.47c161.72 0 296.93-72.03 405.65-217.43 108.72-125.03 164.43-289.46 164.43-488.55 0-199.08-55.71-371.67-164.43-517.76-108.72-125.02-243.93-188.21-405.65-188.21-165.11 0-300.33 63.19-409.04 188.21-127.75 146.09-190.94 318.68-190.94 517.76 0 199.09 63.19 363.52 190.94 488.55 108.71 145.4 243.93 217.43 409.04 217.43" fill="url(#B)"/><path d="M5141.77 8548.99c0-199.08 206.56-297.61 623.76-297.61 416.52 0 625.8 98.53 625.8 297.61 0 180.07-209.28 273.15-625.8 273.15-417.2 0-623.76-93.08-623.76-273.15zm-1332.45-218.11c416.51 0 623.76 101.24 623.76 300.33s-207.25 299.65-623.76 299.65c-435.55 0-652.98-100.56-652.98-299.65s217.43-300.33 652.98-300.33zm4076.86-188.21c416.52 0 623.76 97.84 623.76 296.93s-207.24 300.33-623.76 300.33c-435.54 0-652.98-101.24-652.98-300.33s217.44-296.93 652.98-296.93zM6391.33 9363.69h135.9l270.43-26.5c236.46-19.03 416.52-53 544.26-108.72l1549.89-762.37c217.43-124.35 79.5-233.06-408.37-323.43L5412.2 7707.12c-435.54-74.06-833.71-55.71-1194.52 53-201.8 72.02-652.98 337.02-1358.95 788.87-182.78 89.7-246.65 164.44-190.94 217.44 18.35 18.35 90.37 55.71 217.43 108.71l3506.11 488.55" fill="url(#C)"/><path d="M7886.18 8142.67c-435.54 0-652.98 97.84-652.98 296.93s217.44 300.33 652.98 300.33c416.52 0 623.76-101.24 623.76-300.33s-207.24-296.93-623.76-296.93" fill="url(#D)"/><path d="M3617.71 5369.04c0 199.08-36.7 371.67-108.73 517.76-90.36 142.69-188.21 217.43-296.92 217.43-108.72 0-201.81-74.74-273.83-217.43-89.69-146.09-135.22-318.68-135.22-517.76 0-199.09 45.53-371.68 135.22-515.05 72.02-146.08 165.11-217.43 273.83-217.43 108.71 0 206.56 71.35 296.92 217.43 72.03 143.37 108.73 315.96 108.73 515.05zM2097.03 7325.25l-29.22 217.44c0 236.46 29.22 409.04 82.22 517.76 19.03 18.34 26.5 36.69 26.5 53 37.37 37.37 119.59 93.09 247.33 164.43l732.48-352.65c487.86-236.46 788.19-409.04 896.91-517.76 180.74-146.09 315.95-462.05 409.04-950.59l-55.71-3453.11c-19.03-451.17-116.87-660.45-300.33-623.76-71.35 19.03-315.96 162.4-732.48 435.55-398.17 270.43-671.32 469.52-814.69 597.26-236.46 217.43-353.33 506.89-353.33 867.69l-108.72 3044.74" fill="url(#E)"/><path d="M3809.32 8330.88c-435.55 0-652.98 101.24-652.98 300.33s217.43 299.65 652.98 299.65c416.51 0 623.76-100.56 623.76-299.65s-207.25-300.33-623.76-300.33" fill="url(#F)"/><path d="M5141.77 8548.99c0 180.07 206.56 273.15 623.76 273.15 416.52 0 625.8-93.08 625.8-273.15 0-199.08-209.28-297.61-625.8-297.61-417.2 0-623.76 98.53-623.76 297.61" fill="url(#G)"/><path d="M6118.18 4227.51c180.74 0 326.83-71.34 435.55-217.43 127.06-127.74 190.93-289.46 190.93-488.54 0-199.09-63.87-363.52-190.93-491.27-108.72-143.37-254.81-214.71-435.55-214.71-161.72 0-296.93 71.34-406.32 214.71-127.07 127.75-190.94 292.18-190.94 491.27 0 199.08 63.87 360.8 190.94 488.54 109.39 146.09 244.6 217.43 406.32 217.43" fill="url(#H)"/><path d="M6445.01 5803.9c-109.39-145.4-254.8-217.43-435.55-217.43-161.71 0-297.6 72.03-406.32 217.43-127.07 127.75-190.94 289.46-190.94 488.55 0 199.08 63.87 371.67 190.94 517.76 108.72 143.37 244.61 217.43 406.32 217.43 180.75 0 326.16-74.06 435.55-217.43 127.06-146.09 190.93-318.68 190.93-517.76 0-199.09-63.86-360.8-190.93-488.55" fill="url(#I)"/><path d="M3617.71 5369.04c0-199.09-36.7-371.68-108.73-515.05-90.36-146.08-188.21-217.43-296.92-217.43-108.72 0-201.81 71.35-273.83 217.43-89.69 143.37-135.22 315.96-135.22 515.05 0 199.08 45.53 371.67 135.22 517.76 72.02 142.69 165.11 217.43 273.83 217.43 108.71 0 206.56-74.74 296.92-217.43 72.03-146.09 108.73-318.68 108.73-517.76" fill="url(#J)"/><path d="M8592.16 4636.56c146.09 0 262.28-63.87 352.65-191.61 108.72-145.41 164.43-307.81 164.43-487.87 0-183.46-55.71-345.17-164.43-491.26-90.37-125.02-206.56-188.22-352.65-188.22-143.37 0-271.11 61.16-379.83 188.22-108.71 146.09-164.43 307.8-164.43 491.26 0 180.06 55.72 342.46 164.43 487.87 108.72 127.74 233.74 191.61 379.83 191.61" fill="url(#K)"/></g></g></svg>